<?xml version="1.0" encoding="UTF-8"?>
<!DOCTYPE svg PUBLIC "-//W3C//DTD SVG 1.1//EN" "http://www.w3.org/Graphics/SVG/1.1/DTD/svg11.dtd">
<!-- Creator: CorelDRAW 2020 (64-Bit) -->
<svg xmlns="http://www.w3.org/2000/svg" xml:space="preserve" width="18.1197mm" height="18.12mm" version="1.1" style="shape-rendering:geometricPrecision; text-rendering:geometricPrecision; image-rendering:optimizeQuality; fill-rule:evenodd; clip-rule:evenodd"
viewBox="0 0 555.37 555.38"
 xmlns:xlink="http://www.w3.org/1999/xlink"
 xmlns:xodm="http://www.corel.com/coreldraw/odm/2003">
 <defs>
  <style type="text/css">
   <![CDATA[
    .fil1 {fill:#FEFEFE}
    .fil0 {fill:#D41443}
   ]]>
  </style>
 </defs>
 <g id="Слой_x0020_1">
  <metadata id="CorelCorpID_0Corel-Layer"/>
  <circle class="fil0" cx="277.69" cy="277.69" r="277.69"/>
  <path class="fil1" d="M153.52 300.08l265.1 0c19.18,0 19.18,29.15 0,29.15 -26.02,0 -52.04,0 -78.06,0l0 61.35c0,18.87 -29.15,19.37 -29.15,0l0 -61.35c-58.21,0 -116.43,0 -174.65,0 -19.18,0 -19.18,-29.15 0,-29.15l16.76 0zm181.7 246.2l0 3.14c11.33,-2.39 22.58,-5.47 33.72,-9.37l0 -38.08c37.74,-6.68 66.63,-39.83 66.63,-79.41l0 -62.69c41.61,-15.71 41.61,-74.7 0,-90.41 0,-39.27 -0.43,-65.63 -21.89,-101.9 -60.76,-102.72 -209.92,-104.89 -271.99,-0 -21.46,36.26 -21.89,62.64 -21.89,101.9 -41.61,15.72 -41.61,74.69 0,90.41l0 62.69c0,39.58 28.9,72.74 66.64,79.41 0,12.7 0,25.39 0,38.08 11.15,3.92 22.42,6.98 33.72,9.37l0 -46.23 115.06 0 0 43.09zm-148.78 -78.96c-18.99,-6.01 -32.92,-23.89 -32.92,-44.76l0 -59.6c41.39,0 82.78,0 124.17,0l0 27.63c0,50.21 68,67.05 91.25,22.01 7.41,-14.37 5.34,-31.89 5.34,-49.64l27.58 0 0 59.6c0,26.05 -21.49,46.92 -46.92,46.92 -25,0 -154.21,2.36 -168.49,-2.16zm-32.92 -200.95c0,-27.62 -0.63,-45.65 12.15,-72.23 64.13,57.47 160.66,56.77 224.03,0 12.78,26.57 12.15,44.61 12.15,72.22 -82.78,0 -165.55,0 -248.33,0zm217.3 -100.7c-51.75,49.89 -134.04,50.36 -186.27,0 50.04,-56.83 136.95,-56.01 186.27,0z"/>
 </g>
</svg>
