<svg id="logo_icecream" viewBox="0 0 32 32">
    <path fill="#d41443" style="fill: var(--color1, #d41443)"
        d="M32 16c0 8.837-7.163 16-16 16s-16-7.163-16-16c0-8.837 7.163-16 16-16s16 7.163 16 16z"></path>
    <path fill="#fefefe" style="fill: var(--color2, #fefefe)"
        d="M8.846 17.29h15.275c1.105 0 1.105 1.68 0 1.68-1.499 0-2.998 0-4.498 0v3.535c0 1.087-1.68 1.116-1.68 0v-3.535c-3.354 0-6.709 0-10.063 0-1.105 0-1.105-1.68 0-1.68h0.966zM19.315 31.476v0.181c0.653-0.138 1.301-0.315 1.943-0.54v-2.194c2.174-0.385 3.839-2.295 3.839-4.575v-3.612c2.398-0.905 2.398-4.304 0-5.209 0-2.263-0.025-3.781-1.261-5.871-3.501-5.919-12.095-6.044-15.672 0-1.236 2.089-1.261 3.609-1.261 5.871-2.397 0.906-2.397 4.303 0 5.209v3.612c0 2.281 1.665 4.191 3.84 4.575 0 0.732 0 1.463 0 2.194 0.642 0.226 1.292 0.402 1.943 0.54v-2.664h6.63v2.483zM10.742 26.926c-1.094-0.346-1.897-1.377-1.897-2.579v-3.434c2.385 0 4.77 0 7.154 0v1.592c0 2.893 3.918 3.863 5.258 1.268 0.427-0.828 0.308-1.837 0.308-2.86h1.589v3.434c0 1.501-1.238 2.703-2.703 2.703-1.44 0-8.885 0.136-9.708-0.124zM8.846 15.348c0-1.591-0.036-2.63 0.7-4.162 3.695 3.311 9.257 3.271 12.908 0 0.736 1.531 0.7 2.57 0.7 4.161-4.77 0-9.539 0-14.308 0zM21.366 9.546c-2.982 2.875-7.723 2.902-10.733 0 2.883-3.274 7.891-3.227 10.733 0z">
    </path>
</svg>